# 3ds Max Wavefront OBJ Exporter v0.97b - (c)2007 guruware
# File Created: 17.06.2013 14:35:05
# UVs by headus UVLayout v2.08.00 2012/05/02 06:40:44

mtllib BIA_PlasticBottle.mtl

#
# object Cylinder002
#

v  1.093833684921 0.425540715456 1.834140539169
v  0.884415626526 0.425540715456 1.189617872238
v  0.884415626526 5.414465904236 1.189618110657
v  1.093833684921 5.414465904236 1.834140658379
v  0.336151957512 0.425540715456 0.791280984879
v  0.336151957512 5.414465904236 0.791281104088
v  -0.341539233923 0.425540715456 0.791281104088
v  -0.341539233923 5.414465904236 0.791281223297
v  -0.889802873135 0.425540715456 1.189617991447
v  -0.889802873135 5.414465904236 1.189618110657
v  -1.099220991135 0.425540715456 1.834140658379
v  -1.099220991135 5.414465904236 1.834140777588
v  -0.889802753925 0.425540715456 2.478663206100
v  -0.889802753925 5.414465904236 2.478663444519
v  -0.341539293528 0.425540715456 2.876999855042
v  -0.341539293528 5.414465904236 2.877000331879
v  0.336152136326 0.425540715456 2.876999855042
v  0.336152136326 5.414465904236 2.877000331879
v  0.884415864944 0.425540715456 2.478662967682
v  0.884415864944 5.414465904236 2.478662967682
v  0.396913647652 6.370289802551 1.543808937073
v  0.491248130798 6.370289802551 1.834140539169
v  0.149942770600 6.370289802551 1.364374041557
v  -0.155329987407 6.370289802551 1.364374041557
v  -0.402300864458 6.370289802551 1.543808937073
v  -0.496635317802 6.370289802551 1.834140658379
v  -0.402300804853 6.370289802551 2.124472379684
v  -0.155330017209 6.370289802551 2.303907155991
v  0.149942889810 6.370289802551 2.303907155991
v  0.396913766861 6.370289802551 2.124472141266
v  0.577864348888 6.587195873260 1.834140539169
v  0.466987639666 6.587195873260 1.492897152901
v  0.466987639666 7.173886299133 1.492897152901
v  0.577864348888 7.173886299133 1.834140539169
v  0.176708668470 6.587195873260 1.281997084618
v  0.176708668470 7.173886299133 1.281997084618
v  -0.182095900178 6.587195873260 1.281997203827
v  -0.182095900178 7.173886299133 1.281997084618
v  -0.472374856472 6.587195873260 1.492897272110
v  -0.472374856472 7.173886299133 1.492897152901
v  -0.583251535892 6.587195873260 1.834140658379
v  -0.583251535892 7.173886299133 1.834140539169
v  -0.472374796867 6.587195873260 2.175384044647
v  -0.472374796867 7.173886299133 2.175384044647
v  -0.182095929980 6.587195873260 2.386283874512
v  -0.182095929980 7.173886299133 2.386283874512
v  0.176708757877 6.587195873260 2.386283874512
v  0.176708757877 7.173886299133 2.386283874512
v  0.466987788677 6.587195873260 2.175383806229
v  0.466987788677 7.173886299133 2.175383806229
v  0.819701910019 0.000000000000 1.834140539169
v  0.662638366222 0.000000000000 1.350748538971
v  0.251440554857 0.000000000000 1.051995873451
v  -0.256827831268 0.000000000000 1.051995992661
v  -0.668025553226 0.000000000000 1.350748658180
v  -0.825089097023 0.000000000000 1.834140658379
v  -0.668025434017 0.000000000000 2.317532539368
v  -0.256827861071 0.000000000000 2.616285085678
v  0.251440703869 0.000000000000 2.616285085678
v  0.662638485432 0.000000000000 2.317532300949
v  0.432079583406 7.205463409424 1.518259286880
v  0.534715592861 7.205463409424 1.834140539169
v  0.163374975324 7.205463409424 1.323034048080
v  -0.168762207031 7.205463409424 1.323034048080
v  -0.437466800213 7.205463409424 1.518259406090
v  -0.540102779865 7.205463409424 1.834140539169
v  -0.437466740608 7.205463409424 2.150021791458
v  -0.168762236834 7.205463409424 2.345247030258
v  0.163375064731 7.205463409424 2.345247030258
v  0.432079702616 7.205463409424 2.150021553040
v  -0.002693591639 7.205463409424 1.834140539169
v  0.396913647652 6.555638313293 1.543808937073
v  0.491248130798 6.555638313293 1.834140539169
v  0.149942770600 6.555638313293 1.364374041557
v  -0.155329987407 6.555638313293 1.364374041557
v  -0.402300864458 6.555638313293 1.543808937073
v  -0.496635317802 6.555638313293 1.834140658379
v  -0.402300804853 6.555638313293 2.124472379684
v  -0.155330017209 6.555638313293 2.303907155991
v  0.149942889810 6.555638313293 2.303907155991
v  0.396913766861 6.555638313293 2.124472141266
v  0.163325831294 6.555629730225 2.345095634460
v  -0.168712973595 6.555629730225 2.345095634460
v  -0.437337815762 6.555629730225 2.149928092957
v  -0.539943397045 6.555629730225 1.834140658379
v  -0.437337875366 6.555629730225 1.518353104591
v  -0.168712943792 6.555629730225 1.323185682297
v  0.163325712085 6.555629730225 1.323185563087
v  0.431950628757 6.555629730225 1.518353104591
v  0.534556210041 6.555629730225 1.834140539169
v  0.431950777769 6.555629730225 2.149927854538
v  -0.002693594201 0.183162495494 1.834140539169
# 92 vertices

vn 0.963345646858 -0.268263161182 -0.000000092739
vn 0.779363036156 -0.268263131380 -0.566240370274
vn 0.780316352844 0.263995110989 -0.566932976246
vn 0.964524030685 0.263995110989 -0.000000076214
vn 0.297690123320 -0.268263161182 -0.916196167469
vn 0.298054277897 0.263995051384 -0.917316854000
vn -0.297690242529 -0.268263131380 -0.916196167469
vn -0.298054397106 0.263995021582 -0.917316854000
vn -0.779363095760 -0.268263131380 -0.566240310669
vn -0.780316293240 0.263995140791 -0.566932976246
vn -0.963345646858 -0.268263190985 0.000000125471
vn -0.964524030685 0.263995081186 0.000000114321
vn -0.779362916946 -0.268263190985 0.566240489483
vn -0.780316352844 0.263995081186 0.566932976246
vn -0.297690153122 -0.268263220787 0.916196167469
vn -0.298054397106 0.263995110989 0.917316854000
vn 0.297690302134 -0.268263220787 0.916196107864
vn 0.298054456711 0.263995081186 0.917316794395
vn 0.779363095760 -0.268263190985 0.566240251064
vn 0.780316472054 0.263995110989 0.566932797432
vn 0.773432850838 0.293315887451 -0.561931788921
vn 0.956015586853 0.293315917253 -0.000000117482
vn 0.295425117016 0.293315917253 -0.909224808216
vn -0.295425146818 0.293315887451 -0.909224808216
vn -0.773432910442 0.293315857649 -0.561931848526
vn -0.956015586853 0.293315947056 0.000000036713
vn -0.773432850838 0.293315947056 0.561931848526
vn -0.295425087214 0.293315976858 0.909224808216
vn 0.295425236225 0.293315947056 0.909224748611
vn 0.773433029652 0.293315917253 0.561931610107
vn 0.907206594944 -0.420685410500 -0.000000139654
vn 0.733945548534 -0.420685470104 -0.533242583275
vn 0.734227418900 0.419933199883 -0.533447504044
vn 0.907555043697 0.419933199883 -0.000000104775
vn 0.280342310667 -0.420685410500 -0.862804710865
vn 0.280449956656 0.419933170080 -0.863136112690
vn -0.280342370272 -0.420685440302 -0.862804710865
vn -0.280449986458 0.419933021069 -0.863136172295
vn -0.733945608139 -0.420685291290 -0.533242642879
vn -0.734227478504 0.419933110476 -0.533447444439
vn -0.907206594944 -0.420685410500 0.000000094351
vn -0.907554984093 0.419933259487 0.000000094671
vn -0.733945608139 -0.420685261488 0.533242642879
vn -0.734227478504 0.419933140278 0.533447444439
vn -0.280342310667 -0.420685350895 0.862804710865
vn -0.280449986458 0.419933259487 0.863136053085
vn 0.280342400074 -0.420685350895 0.862804710865
vn 0.280450105667 0.419933259487 0.863136053085
vn 0.733945727348 -0.420685321093 0.533242523670
vn 0.734227657318 0.419933110476 0.533447265625
vn 0.468957513571 -0.883220732212 -0.000000021530
vn 0.379394739866 -0.883220672607 -0.275646358728
vn 0.144915863872 -0.883220672607 -0.446005225182
vn -0.144915893674 -0.883220672607 -0.446005135775
vn -0.379394620657 -0.883220672607 -0.275646358728
vn -0.468957602978 -0.883220672607 0.000000066127
vn -0.379394620657 -0.883220672607 0.275646388531
vn -0.144915848970 -0.883220732212 0.446005105972
vn 0.144915923476 -0.883220672607 0.446005135775
vn 0.379394650459 -0.883220732212 0.275646299124
vn 0.294852644205 0.931219875813 -0.214222908020
vn 0.364457905293 0.931219875813 -0.000000005137
vn 0.112623691559 0.931219875813 -0.346620023251
vn -0.112623736262 0.931219875813 -0.346620053053
vn -0.294852703810 0.931219875813 -0.214222922921
vn -0.364457845688 0.931219875813 0.000000010274
vn -0.294852703810 0.931219816208 0.214223086834
vn -0.112623699009 0.931219875813 0.346619993448
vn 0.112623766065 0.931219875813 0.346620023251
vn 0.294852703810 0.931219875813 0.214222922921
vn 0.000000000000 1.000000000000 -0.000000000000
vn 0.809017002583 0.000000002467 -0.587785184383
vn 1.000000000000 0.000000002467 -0.000000069822
vn 0.309017062187 0.000000000000 -0.951056480408
vn -0.309017062187 0.000000000000 -0.951056480408
vn -0.809017062187 0.000000000000 -0.587785124779
vn -1.000000000000 -0.000000002467 0.000000069822
vn -0.809017002583 -0.000000002467 0.587785243988
vn -0.309017032385 0.000000000000 0.951056480408
vn 0.309017211199 0.000000000000 0.951056420803
vn 0.809017181396 0.000000000000 0.587785005569
vn -0.000061242994 -1.000000000000 -0.000188486418
vn 0.112284049392 -0.931649386883 0.345574438572
vn -0.112283907831 -0.931649446487 0.345574438572
vn 0.000061242907 -1.000000000000 -0.000188486418
vn -0.293963342905 -0.931649327278 0.213576838374
vn 0.000160336000 -1.000000000000 -0.000116490985
vn -0.363358348608 -0.931649446487 0.000000056481
vn 0.000198186317 -1.000000000000 -0.000000000041
vn -0.293963313103 -0.931649386883 -0.213576748967
vn 0.000160335912 -1.000000000000 0.000116490846
vn -0.112283989787 -0.931649386883 -0.345574408770
vn 0.000061242928 -1.000000000000 0.000188486272
vn 0.112283952534 -0.931649386883 -0.345574438572
vn -0.000061242878 -1.000000000000 0.000188486025
vn 0.293963164091 -0.931649446487 -0.213576659560
vn -0.000160336000 -1.000000000000 0.000116490861
vn 0.363358408213 -0.931649446487 -0.000000041077
vn -0.000198186317 -1.000000000000 0.000000000029
vn 0.293963283300 -0.931649386883 0.213576689363
vn -0.000160335971 -1.000000000000 -0.000116490861
vn 0.000000007492 -1.000000000000 0.000000010614
# 102 vertex normals

# 150 texture coords
vt 0.752304 0.394459
vt 0.826846 0.394546
vt 0.901201 0.394898
vt 0.303618 0.394897
vt 0.377976 0.394545
vt 0.452520 0.394458
vt 0.527384 0.394429
vt 0.602413 0.394425
vt 0.677442 0.394429
vt 0.314111 0.298277
vt 0.326037 0.261574
vt 0.282890 0.320960
vt 0.244298 0.320960
vt 0.213077 0.298276
vt 0.201151 0.261573
vt 0.213076 0.224870
vt 0.244297 0.202187
vt 0.282890 0.202187
vt 0.314111 0.224870
vt 0.263594 0.261574
vt 0.916716 0.197604
vt 0.242397 0.326809
vt 0.208101 0.301891
vt 0.195001 0.261573
vt 0.284790 0.326810
vt 0.208100 0.221255
vt 0.319087 0.301891
vt 0.242397 0.196337
vt 0.332187 0.261574
vt 0.284790 0.196337
vt 0.319087 0.221255
vt 0.314262 0.224734
vt 0.283068 0.202046
vt 0.244495 0.202061
vt 0.213313 0.224767
vt 0.314306 0.298116
vt 0.283121 0.320817
vt 0.244548 0.320823
vt 0.213348 0.298142
vt 0.201419 0.261460
vt 0.310222 0.227670
vt 0.281525 0.206796
vt 0.246041 0.206809
vt 0.284977 0.196169
vt 0.319262 0.221101
vt 0.217355 0.227699
vt 0.242582 0.196186
vt 0.206413 0.261458
vt 0.208311 0.221138
vt 0.217388 0.295207
vt 0.195239 0.261463
vt 0.246091 0.316073
vt 0.208348 0.301775
vt 0.281576 0.316069
vt 0.242639 0.326700
vt 0.310263 0.295183
vt 0.285033 0.326693
vt 0.319308 0.301744
vt 0.326186 0.261418
vt 0.321192 0.261420
vt 0.332367 0.261414
vt 0.151934 0.247529
vt 0.163127 0.211446
vt 0.184828 0.180563
vt 0.214963 0.157829
vt 0.250647 0.145424
vt 0.288437 0.144524
vt 0.324527 0.154938
vt 0.163942 0.321045
vt 0.152312 0.285330
vt 0.021909 0.228053
vt 0.045243 0.153278
vt 0.090320 0.089195
vt 0.182121 0.220788
vt 0.172899 0.250606
vt 0.022407 0.306368
vt 0.152845 0.041978
vt 0.200044 0.195273
vt 0.173362 0.281919
vt 0.046461 0.380975
vt 0.226788 0.016131
vt 0.224940 0.176498
vt 0.183721 0.312086
vt 0.092614 0.444634
vt 0.184115 0.351358
vt 0.305073 0.013982
vt 0.254430 0.166274
vt 0.201926 0.340832
vt 0.380450 0.035499
vt 0.285741 0.165677
vt 0.445633 0.079472
vt 0.355504 0.174075
vt 0.316241 0.175009
vt 0.345588 0.192232
vt 0.539880 0.234768
vt 0.581676 0.234768
vt 0.581676 0.303110
vt 0.539880 0.303110
vt 0.623472 0.234768
vt 0.623472 0.303110
vt 0.498084 0.234768
vt 0.498084 0.303110
vt 0.665268 0.234768
vt 0.665268 0.303110
vt 0.456288 0.234768
vt 0.456288 0.303110
vt 0.414492 0.234768
vt 0.414492 0.303110
vt 0.372696 0.234768
vt 0.372696 0.303110
vt 0.748861 0.234768
vt 0.790658 0.234768
vt 0.790658 0.303110
vt 0.748861 0.303110
vt 0.707065 0.234768
vt 0.707065 0.303110
vt 1.009680 0.167408
vt 1.009680 0.227821
vt 0.974162 0.276691
vt 0.974180 0.118530
vt 0.916704 0.295353
vt 0.916727 0.099855
vt 0.859251 0.276678
vt 0.859268 0.118517
vt 0.823747 0.227800
vt 0.823753 0.167388
vt 0.302339 0.975785
vt 0.230577 0.975785
vt 0.230577 0.395283
vt 0.230577 0.336148
vt 0.304867 0.336148
vt 0.376964 0.975785
vt 0.378057 0.336148
vt 0.451779 0.975785
vt 0.452532 0.336148
vt 0.526997 0.975785
vt 0.527386 0.336148
vt 0.602392 0.975785
vt 0.602412 0.336148
vt 0.677788 0.975785
vt 0.677438 0.336148
vt 0.753008 0.975785
vt 0.752290 0.336148
vt 0.827828 0.975785
vt 0.826763 0.336148
vt 0.902460 0.975785
vt 0.899950 0.336148
vt 0.974234 0.395283
vt 0.974234 0.975785
vt 0.974234 0.336148
# 108 texture coords

g Cylinder002
usemtl wire_115115115
s 1
f 1/1/1 2/2/2 3/144/3 4/142/4
f 2/2/2 5/3/5 6/146/6 3/144/3
f 5/3/5 7/148/7 8/149/8 6/146/6
f 7/129/7 9/4/9 10/127/10 8/128/8
f 9/4/9 11/5/11 12/132/12 10/127/10
f 11/5/11 13/6/13 14/134/14 12/132/12
f 13/6/13 15/7/15 16/136/16 14/134/14
f 15/7/15 17/8/17 18/138/18 16/136/16
f 17/8/17 19/9/19 20/140/20 18/138/18
f 19/9/19 1/1/1 4/142/4 20/140/20
f 4/84/4 3/80/3 21/69/21 22/85/22
f 3/80/3 6/76/6 23/70/23 21/69/21
f 6/76/6 8/71/8 24/62/24 23/70/23
f 8/71/8 10/72/10 25/63/25 24/62/24
f 10/72/10 12/73/12 26/64/26 25/63/25
f 12/73/12 14/77/14 27/65/27 26/64/26
f 14/77/14 16/81/16 28/66/28 27/65/27
f 16/81/16 18/86/18 29/67/29 28/66/28
f 18/86/18 20/89/20 30/68/30 29/67/29
f 20/89/20 4/91/4 22/92/22 30/68/30
s 2
f 31/109/31 32/107/32 33/108/33 34/110/34
f 32/107/32 35/105/35 36/106/36 33/108/33
f 35/105/35 37/101/37 38/102/38 36/106/36
f 37/101/37 39/95/39 40/98/40 38/102/38
f 39/95/39 41/96/41 42/97/42 40/98/40
f 41/96/41 43/99/43 44/100/44 42/97/42
f 43/99/43 45/103/45 46/104/46 44/100/44
f 45/103/45 47/115/47 48/116/48 46/104/46
f 47/115/47 49/111/49 50/114/50 48/116/48
f 49/111/49 31/112/31 34/113/34 50/114/50
s 1
f 1/1/1 51/143/51 52/145/52 2/2/2
f 2/2/2 52/145/52 53/147/53 5/3/5
f 5/3/5 53/147/53 54/150/54 7/148/7
f 7/129/7 54/130/54 55/131/55 9/4/9
f 9/4/9 55/131/55 56/133/56 11/5/11
f 11/5/11 56/133/56 57/135/57 13/6/13
f 13/6/13 57/135/57 58/137/58 15/7/15
f 15/7/15 58/137/58 59/139/59 17/8/17
f 17/8/17 59/139/59 60/141/60 19/9/19
f 19/9/19 60/141/60 51/143/51 1/1/1
s 2
f 34/29/34 33/27/33 61/10/61 62/11/62
f 33/27/33 36/25/36 63/12/63 61/10/61
f 36/25/36 38/22/38 64/13/64 63/12/63
f 38/22/38 40/23/40 65/14/65 64/13/64
f 40/23/40 42/24/42 66/15/66 65/14/65
f 42/24/42 44/26/44 67/16/67 66/15/66
f 44/26/44 46/28/46 68/17/68 67/16/67
f 46/28/46 48/30/48 69/18/69 68/17/68
f 48/30/48 50/31/50 70/19/70 69/18/69
f 50/31/50 34/29/34 62/11/62 70/19/70
f 62/11/62 61/10/61 71/20/71
f 61/10/61 63/12/63 71/20/71
f 63/12/63 64/13/64 71/20/71
f 64/13/64 65/14/65 71/20/71
f 65/14/65 66/15/66 71/20/71
f 66/15/66 67/16/67 71/20/71
f 67/16/67 68/17/68 71/20/71
f 68/17/68 69/18/69 71/20/71
f 69/18/69 70/19/70 71/20/71
f 70/19/70 62/11/62 71/20/71
s 1
f 22/85/22 21/69/21 72/83/72 73/88/73
f 21/69/21 23/70/23 74/79/74 72/83/72
f 23/70/23 24/62/24 75/75/75 74/79/74
f 24/62/24 25/63/25 76/74/76 75/75/75
f 25/63/25 26/64/26 77/78/77 76/74/76
f 26/64/26 27/65/27 78/82/78 77/78/77
f 27/65/27 28/66/28 79/87/79 78/82/78
f 28/66/28 29/67/29 80/90/80 79/87/79
f 29/67/29 30/68/30 81/93/81 80/90/80
f 30/68/30 22/92/22 73/94/73 81/93/81
s 2
f 80/48/82 82/40/83 83/35/84 79/46/85
f 79/46/85 83/35/84 84/34/86 78/43/87
f 78/43/87 84/34/86 85/33/88 77/42/89
f 77/42/89 85/33/88 86/32/90 76/41/91
f 76/41/91 86/32/90 87/59/92 75/60/93
f 75/60/93 87/59/92 88/36/94 74/56/95
f 74/56/95 88/36/94 89/37/96 72/54/97
f 72/54/97 89/37/96 90/38/98 73/52/99
f 73/52/99 90/38/98 91/39/100 81/50/101
f 81/50/101 91/39/100 82/40/83 80/48/82
f 47/51/47 45/49/45 83/35/84 82/40/83
f 45/49/45 43/47/43 84/34/86 83/35/84
f 43/47/43 41/44/41 85/33/88 84/34/86
f 41/44/41 39/45/39 86/32/90 85/33/88
f 39/45/39 37/61/37 87/59/92 86/32/90
f 37/61/37 35/58/35 88/36/94 87/59/92
f 35/58/35 32/57/32 89/37/96 88/36/94
f 32/57/32 31/55/31 90/38/98 89/37/96
f 31/55/31 49/53/49 91/39/100 90/38/98
f 49/53/49 47/51/47 82/40/83 91/39/100
s 1
f 51/121/51 92/21/102 52/119/52
f 52/119/52 92/21/102 53/118/53
f 53/118/53 92/21/102 54/117/54
f 54/117/54 92/21/102 55/120/55
f 55/120/55 92/21/102 56/122/56
f 56/122/56 92/21/102 57/124/57
f 57/124/57 92/21/102 58/126/58
f 58/126/58 92/21/102 59/125/59
f 59/125/59 92/21/102 60/123/60
f 60/123/60 92/21/102 51/121/51
# 80 polygons - 20 triangles

